HIERARCHY
ROOT Hips
{
  OFFSET 0 0 0
  CHANNELS 6 Xposition Yposition Zposition Zrotation Yrotation Xrotation
  JOINT LeftThigh
  {
    OFFSET 8.409438 0 -5.917753
    CHANNELS 3 Zrotation Yrotation Xrotation
    JOINT LeftLeg
    {
      OFFSET 0 0 -42.358652
      CHANNELS 3 Zrotation Yrotation Xrotation
      JOINT LeftFoot
      {
        OFFSET 0 0 -39.357303
        CHANNELS 3 Zrotation Yrotation Xrotation
      }
    }
  }
  JOINT RightThigh
  {
    OFFSET -8.409438 0 -5.917753
    CHANNELS 3 Zrotation Yrotation Xrotation
    JOINT RightLeg
    {
      OFFSET 0 0 -42.358652
      CHANNELS 3 Zrotation Yrotation Xrotation
      JOINT RightFoot
      {
        OFFSET 0 0 -39.357303
        CHANNELS 3 Zrotation Yrotation Xrotation
      }
    }
  }
  JOINT SpineLow
  {
    OFFSET 0 0 4.719101
    CHANNELS 3 Zrotation Yrotation Xrotation
    JOINT SpineMid
    {
      OFFSET 0 0 12.899191
      CHANNELS 3 Zrotation Yrotation Xrotation
      JOINT Chest
      {
        OFFSET 0 0 12.899191
        CHANNELS 3 Zrotation Yrotation Xrotation
        JOINT LeftShoulder
        {
          OFFSET 7.550562 1.41573 9.438202
          CHANNELS 3 Zrotation Yrotation Xrotation
          JOINT LeftArm
          {
            OFFSET 9.155056 0 4.247191
            CHANNELS 3 Zrotation Yrotation Xrotation
            JOINT LeftForearm
            {
              OFFSET 0 0 25.771955
              CHANNELS 3 Zrotation Yrotation Xrotation
              JOINT LeftHand
              {
                OFFSET 0 0 25.197169
                CHANNELS 3 Zrotation Yrotation Xrotation
              }
            }
          }
        }
        JOINT RightShoulder
        {
          OFFSET -7.550562 1.41573 9.438202
          CHANNELS 3 Zrotation Yrotation Xrotation
          JOINT RightArm
          {
            OFFSET -9.155056 0 4.247191
            CHANNELS 3 Zrotation Yrotation Xrotation
            JOINT RightForearm
            {
              OFFSET 0 0 -25.771955
              CHANNELS 3 Zrotation Yrotation Xrotation
              JOINT RightHand
              {
                OFFSET 0 0 -25.197169
                CHANNELS 3 Zrotation Yrotation Xrotation
              }
            }
          }
        }
        JOINT Neck
        {
          OFFSET 0 0 15.101124
          CHANNELS 3 Zrotation Yrotation Xrotation
          JOINT Head
          {
            OFFSET 0 0 11.325843
            CHANNELS 3 Zrotation Yrotation Xrotation
            End Site
            {
              OFFSET 0 0 14.157303
            }
          }
        }
      }
    }
  }
}
MOTION
Frames: 5
Frame Time: 0.0
0.0  101.685394  0.0  -0.663621  -9.81236  -101.942361  18.419999  -19.753978  6.067517  -6.569222  8.387864  24.599874  7.726631  4.873047  3.702261  2.581055  10.81251  -1.465733  8.088834  7.391363  18.080956  3.440751  0.738307  -3.416527  -2.647854  -0.249665  2.723573  -7.255268  -0.38283  7.461754  -7.255268  -0.38283  7.461755  -0.64542  29.605624  3.994584  -142.306409  66.730125  -101.169709  -13.959431  -37.203594  104.676394  103.075407  21.697355  -34.792696  7.481495  4.713342  18.862104  59.352615  23.247365  25.866049  -53.730401  13.793124  -88.624131  72.982542  27.328808  30.245475  9.94852  0.708961  -4.761526  7.467354  0.454373  -3.583767  
0.0  101.685394  0.0  -0.82883  -10.648012  -101.606867  19.503781  -20.125654  5.605851  -6.710665  8.66638  24.710136  7.714108  4.87289  3.59174  4.231798  10.424329  -1.802402  7.489663  7.443035  18.208255  3.565305  0.656354  -3.610348  -2.635004  -0.307882  2.735923  -7.226885  -0.541606  7.50185  -7.226885  -0.541606  7.50185  -0.798087  29.690947  3.850382  -141.839538  66.129452  -101.206305  -14.23652  -37.206314  105.024989  103.061322  21.671613  -34.586515  7.302707  4.274815  18.20002  60.229388  24.063555  26.200711  -53.704635  14.206612  -88.664964  72.657873  26.987047  31.683345  10.060008  0.766716  -5.035928  7.551818  0.492325  -3.790731  
0.0  101.685394  0.0  -0.952632  -11.490104  -101.31158  20.829927  -20.533746  5.121523  -6.929184  8.91413  24.815174  7.375179  4.869749  3.404621  5.78719  10.062649  -2.135913  6.96417  7.519418  18.42923  4.03366  0.606798  -3.822617  -2.614512  -0.358749  2.747794  -7.176874  -0.681286  7.539743  -7.176875  -0.681286  7.539744  -0.97771  29.745458  3.752074  -141.368251  65.562054  -101.077471  -14.414965  -37.240076  105.098916  102.997154  21.591791  -34.339602  7.410316  3.89143  17.794939  60.909043  24.976594  26.377266  -53.717384  14.377509  -88.550616  72.744783  26.796199  31.873346  10.211712  0.857954  -5.278692  7.666728  0.55548  -3.974599  
0.0  101.685394  0.0  -1.010901  -12.227123  -101.025268  22.46481  -20.9828  4.731695  -7.390618  9.190916  24.803435  6.932856  4.836605  3.169867  6.905278  9.788277  -2.570523  6.811442  7.616809  18.743422  4.409253  0.537363  -4.01136  -2.592516  -0.394755  2.769012  -7.121184  -0.779646  7.601445  -7.121183  -0.779646  7.601445  -1.317441  29.795097  3.516777  -140.796633  65.014117  -101.056165  -14.626689  -37.137535  105.350799  102.925463  21.485376  -34.129598  7.404431  3.423184  17.403213  61.717457  26.00941  26.707783  -54.429517  14.439395  -88.51762  72.73268  26.558878  31.409705  10.268705  0.908781  -5.581442  7.710428  0.588042  -4.202673  
0.0  101.685394  0.0  -1.045779  -13.055473  -100.859539  24.093028  -21.394372  4.306028  -7.761896  9.439497  24.966906  6.44663  4.816736  2.939292  7.860907  9.445232  -2.958838  7.067647  7.754364  19.118308  4.802717  0.472306  -4.134681  -2.560719  -0.427459  2.807628  -7.038597  -0.868324  7.710134  -7.038597  -0.868324  7.710133  -1.531167  29.802955  3.378681  -140.365917  64.505888  -100.943776  -14.80435  -36.984564  105.437998  102.829336  21.379158  -34.066688  7.64191  3.048392  17.216506  62.359773  27.164778  27.015316  -54.705813  14.663047  -88.286836  72.857683  26.539174  31.306476  10.444934  1.031536  -5.841877  7.844197  0.674098  -4.400446  
